<?xml version="1.0" encoding="UTF-8" standalone="no"?>
<svg width="193px" height="21px" viewBox="0 0 193 21" version="1.1" xmlns="http://www.w3.org/2000/svg" xmlns:xlink="http://www.w3.org/1999/xlink" xmlns:sketch="http://www.bohemiancoding.com/sketch/ns">
    <!-- Generator: Sketch 3.3.2 (12043) - http://www.bohemiancoding.com/sketch -->
    <title>Group</title>
    <desc>Created with Sketch.</desc>
    <defs></defs>
    <g id="Page-1" stroke="none" stroke-width="1" fill="none" fill-rule="evenodd" sketch:type="MSPage">
        <g id="Group" sketch:type="MSLayerGroup" transform="translate(-1.000000, 0.000000)" fill="#2E2827">
            <path d="M71.151,9.106 C77.277,9.612 83.403,10.131 89.536,10.619 C95.411,11.087 101.348,10.847 107.238,11.021 C108.854,11.068 114.288,10.866 115.433,10.684 C118.819,10.146 118.375,7.563 115.433,6.812 C114.309,6.525 108.854,6.428 107.238,6.476 C101.348,6.649 95.411,7.124 89.536,7.592 C83.403,8.081 77.277,8.599 71.151,9.106 M122.559,10.746 L122.559,10.745 C122.561,8.206 120.646,6.068 116.835,4.66 C108.252,1.488 45.554,11.311 2.201,9.612 C0.637,9.558 0.483,11.956 2.201,11.878 C45.554,10.18 108.252,20.004 116.835,16.832 C120.646,15.423 122.561,13.285 122.559,10.746" id="Fill-52-Copy" sketch:type="MSShapeGroup"></path>
            <path d="M183.165,9.339 C182.237,9.339 181.485,10.091 181.485,11.018 C181.485,11.946 182.237,12.697 183.165,12.697 C184.091,12.697 184.844,11.946 184.844,11.018 C184.844,10.091 184.091,9.339 183.165,9.339 L183.165,9.339 Z M177.159,15.155 C178.275,15.133 178.97,13.578 180.208,13.038 C180.871,12.832 181.15,13.038 181.049,13.655 C180.507,14.892 178.954,15.59 178.931,16.704 C178.926,16.975 178.926,17.325 179.351,17.502 C180.475,17.969 181.985,18.991 182.374,20.136 C182.53,20.599 183.056,20.663 183.341,20.682 C183.624,20.663 184.151,20.599 184.308,20.136 C184.694,18.991 186.205,17.969 187.33,17.502 C187.753,17.325 187.753,16.975 187.75,16.704 C187.728,15.59 186.173,14.892 185.633,13.655 C185.53,13.038 185.81,12.832 186.472,13.038 C187.71,13.578 188.406,15.133 189.523,15.155 C189.792,15.16 190.14,15.16 190.318,14.735 C190.785,13.611 191.808,12.099 192.953,11.713 C193.414,11.557 193.478,11.03 193.5,10.745 C193.478,10.461 193.414,9.934 192.953,9.779 C191.808,9.391 190.785,7.88 190.318,6.756 C190.14,6.331 189.792,6.331 189.523,6.337 C188.406,6.358 187.71,7.913 186.472,8.453 C185.81,8.659 185.53,8.453 185.633,7.836 C186.173,6.599 187.728,5.902 187.75,4.786 C187.753,4.516 187.753,4.166 187.33,3.991 C186.205,3.523 184.694,2.5 184.308,1.355 C184.151,0.892 183.624,0.829 183.341,0.809 C183.056,0.829 182.53,0.892 182.374,1.355 C181.985,2.5 180.475,3.523 179.351,3.991 C178.926,4.166 178.926,4.516 178.931,4.786 C178.954,5.902 180.507,6.599 181.049,7.836 C181.15,8.453 180.871,8.659 180.208,8.453 C178.97,7.913 178.275,6.358 177.159,6.337 C176.888,6.331 176.539,6.331 176.363,6.756 C175.894,7.88 174.872,9.391 173.729,9.779 C173.265,9.934 173.201,10.461 173.182,10.745 C173.201,11.03 173.265,11.557 173.729,11.713 C174.872,12.099 175.894,13.611 176.363,14.735 C176.539,15.16 176.888,15.16 177.159,15.155 L177.159,15.155 Z" id="Fill-53-Copy-2" sketch:type="MSShapeGroup"></path>
            <path d="M171.262,10.745 L171.262,10.746 C171.237,10.344 171.368,9.95 171.657,9.564 C172.825,8.444 173.13,6.42 173.001,5.674 C172.572,3.192 171.365,2.039 169.541,2.094 C167.715,2.149 166.453,3.22 166.52,4.834 C166.584,6.401 167.667,7.751 170.114,7.487 C169.908,8.605 168.315,9.525 165.441,9.077 C162.766,8.661 160.914,4.87 161.736,4.216 C162.383,3.818 162.441,3.096 161.913,2.05 C158.885,1.932 157.563,3.581 157.944,7 C154.692,7.03 151.652,8.191 149.039,10.094 L148.081,10.745 L149.039,11.398 C151.83,13.431 154.799,14.461 157.944,14.492 C157.563,17.909 158.885,19.559 161.913,19.441 C162.441,18.396 162.383,17.674 161.736,17.276 C160.914,16.62 162.766,12.83 165.441,12.415 C168.315,11.967 169.908,12.887 170.114,14.005 C167.667,13.741 166.584,15.09 166.52,16.657 C166.453,18.272 167.715,19.341 169.541,19.396 C171.365,19.453 172.572,18.299 173.001,15.818 C173.13,15.072 172.825,13.048 171.657,11.928 C171.368,11.542 171.237,11.147 171.262,10.745" id="Fill-54-Copy" sketch:type="MSShapeGroup"></path>
            <path d="M128.405,6.503 C130.747,6.503 132.647,8.403 132.647,10.745 C132.647,13.089 130.747,14.989 128.405,14.989 C126.061,14.989 124.162,13.089 124.162,10.745 C124.162,8.403 126.061,6.503 128.405,6.503" id="Fill-55-Copy" sketch:type="MSShapeGroup"></path>
            <path d="M152.257,3.859 C148.23,6.023 145.614,8.042 144.41,9.913 C140.249,8.808 136.892,8.329 134.489,8.632 C140.324,3.505 146.246,1.914 152.257,3.859" id="Fill-56-Copy" sketch:type="MSShapeGroup"></path>
            <path d="M152.257,17.633 C148.23,15.468 145.614,13.45 144.41,11.578 C140.249,12.683 136.892,13.162 134.489,12.86 C140.324,17.987 146.246,19.577 152.257,17.633" id="Fill-57-Copy" sketch:type="MSShapeGroup"></path>
        </g>
    </g>
</svg>