<?xml version="1.0" encoding="UTF-8" standalone="no"?>
<svg width="193px" height="21px" viewBox="0 0 193 21" version="1.1" xmlns="http://www.w3.org/2000/svg" xmlns:xlink="http://www.w3.org/1999/xlink" xmlns:sketch="http://www.bohemiancoding.com/sketch/ns">
    <!-- Generator: Sketch 3.3.2 (12043) - http://www.bohemiancoding.com/sketch -->
    <title>Group</title>
    <desc>Created with Sketch.</desc>
    <defs></defs>
    <g id="Page-1" stroke="none" stroke-width="1" fill="none" fill-rule="evenodd" sketch:type="MSPage">
        <g id="Group" sketch:type="MSLayerGroup" transform="translate(0.025000, 0.102000)" fill="#2E2827">
            <g sketch:type="MSShapeGroup">
                <path d="M10.165,9.339 C9.237,9.339 8.485,10.091 8.485,11.018 C8.485,11.946 9.237,12.697 10.165,12.697 C11.091,12.697 11.844,11.946 11.844,11.018 C11.844,10.091 11.091,9.339 10.165,9.339 L10.165,9.339 Z M4.159,15.155 C5.275,15.133 5.97,13.578 7.208,13.038 C7.871,12.832 8.15,13.038 8.049,13.655 C7.507,14.892 5.954,15.59 5.931,16.704 C5.926,16.975 5.926,17.325 6.351,17.502 C7.475,17.969 8.985,18.991 9.374,20.136 C9.53,20.599 10.056,20.663 10.341,20.682 C10.624,20.663 11.151,20.599 11.308,20.136 C11.694,18.991 13.205,17.969 14.33,17.502 C14.753,17.325 14.753,16.975 14.75,16.704 C14.728,15.59 13.173,14.892 12.633,13.655 C12.53,13.038 12.81,12.832 13.472,13.038 C14.71,13.578 15.406,15.133 16.523,15.155 C16.792,15.16 17.14,15.16 17.318,14.735 C17.785,13.611 18.808,12.099 19.953,11.713 C20.414,11.557 20.478,11.03 20.5,10.745 C20.478,10.461 20.414,9.934 19.953,9.779 C18.808,9.391 17.785,7.88 17.318,6.756 C17.14,6.331 16.792,6.331 16.523,6.337 C15.406,6.358 14.71,7.913 13.472,8.453 C12.81,8.659 12.53,8.453 12.633,7.836 C13.173,6.599 14.728,5.902 14.75,4.786 C14.753,4.516 14.753,4.166 14.33,3.991 C13.205,3.523 11.694,2.5 11.308,1.355 C11.151,0.892 10.624,0.829 10.341,0.809 C10.056,0.829 9.53,0.892 9.374,1.355 C8.985,2.5 7.475,3.523 6.351,3.991 C5.926,4.166 5.926,4.516 5.931,4.786 C5.954,5.902 7.507,6.599 8.049,7.836 C8.15,8.453 7.871,8.659 7.208,8.453 C5.97,7.913 5.275,6.358 4.159,6.337 C3.888,6.331 3.539,6.331 3.363,6.756 C2.894,7.88 1.872,9.391 0.729,9.779 C0.265,9.934 0.201,10.461 0.182,10.745 C0.201,11.03 0.265,11.557 0.729,11.713 C1.872,12.099 2.894,13.611 3.363,14.735 C3.539,15.16 3.888,15.16 4.159,15.155 L4.159,15.155 Z" id="Fill-53-Copy"></path>
                <path d="M122.531,9.378 C116.404,9.884 110.279,10.403 104.144,10.891 C98.271,11.36 92.333,11.119 86.443,11.294 C84.828,11.34 79.394,11.138 78.248,10.956 C74.863,10.419 75.304,7.836 78.248,7.084 C79.373,6.797 84.828,6.7 86.443,6.748 C92.333,6.922 98.271,7.396 104.144,7.864 C110.279,8.353 116.404,8.871 122.531,9.378 M71.121,11.018 L71.121,11.017 C71.121,8.478 73.035,6.34 76.845,4.932 C85.429,1.76 148.126,11.583 191.48,9.885 C193.044,9.83 193.197,12.229 191.48,12.15 C148.126,10.452 85.429,20.276 76.845,17.104 C73.035,15.696 71.121,13.557 71.121,11.018" id="Fill-58-Copy"></path>
                <path d="M22.417,11.017 L22.417,11.018 C22.443,10.617 22.312,10.222 22.025,9.836 C20.857,8.716 20.55,6.692 20.679,5.946 C21.107,3.464 22.314,2.311 24.14,2.367 C25.964,2.422 27.228,3.492 27.162,5.107 C27.095,6.674 26.015,8.023 23.568,7.759 C23.771,8.878 25.365,9.797 28.242,9.349 C30.916,8.933 32.769,5.143 31.945,4.488 C31.298,4.09 31.238,3.368 31.767,2.322 C34.796,2.205 36.119,3.854 35.736,7.272 C38.988,7.302 42.029,8.463 44.642,10.366 L45.601,11.017 L44.642,11.67 C41.851,13.703 38.882,14.733 35.736,14.764 C36.119,18.181 34.796,19.831 31.767,19.713 C31.238,18.668 31.298,17.946 31.945,17.548 C32.769,16.892 30.916,13.102 28.242,12.687 C25.365,12.24 23.771,13.159 23.568,14.277 C26.015,14.013 27.095,15.363 27.162,16.929 C27.228,18.544 25.964,19.613 24.14,19.668 C22.314,19.724 21.107,18.571 20.679,16.09 C20.55,15.344 20.857,13.32 22.025,12.2 C22.312,11.814 22.443,11.42 22.417,11.017" id="Fill-59-Copy"></path>
                <path d="M65.277,6.775 C62.933,6.775 61.035,8.675 61.035,11.017 C61.035,13.361 62.933,15.261 65.277,15.261 C67.619,15.261 69.521,13.361 69.521,11.017 C69.521,8.675 67.619,6.775 65.277,6.775" id="Fill-60-Copy"></path>
                <path d="M41.423,4.131 C45.451,6.295 48.066,8.314 49.271,10.186 C53.431,9.08 56.789,8.601 59.191,8.904 C53.359,3.777 47.435,2.186 41.423,4.131" id="Fill-61-Copy"></path>
                <path d="M41.423,17.905 C45.451,15.74 48.066,13.722 49.271,11.85 C53.431,12.955 56.789,13.434 59.191,13.132 C53.359,18.259 47.435,19.849 41.423,17.905" id="Fill-62-Copy"></path>
            </g>
        </g>
    </g>
</svg>